<mxfile host="app.diagrams.net" modified="2024-11-08T11:46:34.964Z" agent="Mozilla/5.0 (Windows NT 10.0; Win64; x64) AppleWebKit/537.36 (KHTML, like Gecko) Chrome/130.0.0.0 Safari/537.36" etag="0YV2TctcdjU2OfwiITT0" version="24.3.1" type="device">
  <diagram name="Page-1" id="AbbjHF2tEkc4bQsR_uXS">
    <mxGraphModel dx="1313" dy="653" grid="1" gridSize="10" guides="1" tooltips="1" connect="1" arrows="1" fold="1" page="1" pageScale="1" pageWidth="850" pageHeight="1100" math="0" shadow="0">
      <root>
        <mxCell id="0" />
        <mxCell id="1" parent="0" />
        <mxCell id="Yy8-1cXJRBkbJvWf1qfa-34" value="" style="rounded=0;whiteSpace=wrap;html=1;dashed=1;dashPattern=8 8;strokeColor=#FF9999;fillColor=none;strokeWidth=4;" vertex="1" parent="1">
          <mxGeometry x="220" y="290" width="200" height="260" as="geometry" />
        </mxCell>
        <mxCell id="Yy8-1cXJRBkbJvWf1qfa-1" value="" style="ellipse;whiteSpace=wrap;html=1;aspect=fixed;" vertex="1" parent="1">
          <mxGeometry x="340" y="660" width="60" height="60" as="geometry" />
        </mxCell>
        <mxCell id="Yy8-1cXJRBkbJvWf1qfa-2" value="" style="ellipse;whiteSpace=wrap;html=1;aspect=fixed;" vertex="1" parent="1">
          <mxGeometry x="450" y="660" width="60" height="60" as="geometry" />
        </mxCell>
        <mxCell id="Yy8-1cXJRBkbJvWf1qfa-3" value="" style="ellipse;whiteSpace=wrap;html=1;aspect=fixed;" vertex="1" parent="1">
          <mxGeometry x="230" y="480" width="60" height="60" as="geometry" />
        </mxCell>
        <mxCell id="Yy8-1cXJRBkbJvWf1qfa-4" value="" style="ellipse;whiteSpace=wrap;html=1;aspect=fixed;" vertex="1" parent="1">
          <mxGeometry x="340" y="480" width="60" height="60" as="geometry" />
        </mxCell>
        <mxCell id="Yy8-1cXJRBkbJvWf1qfa-5" value="" style="ellipse;whiteSpace=wrap;html=1;aspect=fixed;" vertex="1" parent="1">
          <mxGeometry x="450" y="480" width="60" height="60" as="geometry" />
        </mxCell>
        <mxCell id="Yy8-1cXJRBkbJvWf1qfa-6" value="" style="ellipse;whiteSpace=wrap;html=1;aspect=fixed;" vertex="1" parent="1">
          <mxGeometry x="560" y="480" width="60" height="60" as="geometry" />
        </mxCell>
        <mxCell id="Yy8-1cXJRBkbJvWf1qfa-9" value="" style="ellipse;whiteSpace=wrap;html=1;aspect=fixed;" vertex="1" parent="1">
          <mxGeometry x="395" y="150" width="60" height="60" as="geometry" />
        </mxCell>
        <mxCell id="Yy8-1cXJRBkbJvWf1qfa-20" value="" style="endArrow=none;html=1;rounded=0;exitX=0.5;exitY=0;exitDx=0;exitDy=0;entryX=0.5;entryY=0;entryDx=0;entryDy=0;strokeWidth=2;" edge="1" parent="1" target="Yy8-1cXJRBkbJvWf1qfa-6">
          <mxGeometry width="50" height="50" relative="1" as="geometry">
            <mxPoint x="530" y="360" as="sourcePoint" />
            <mxPoint x="640" y="480" as="targetPoint" />
          </mxGeometry>
        </mxCell>
        <mxCell id="Yy8-1cXJRBkbJvWf1qfa-22" value="" style="endArrow=none;html=1;rounded=0;entryX=0.5;entryY=1;entryDx=0;entryDy=0;strokeWidth=2;" edge="1" parent="1">
          <mxGeometry width="50" height="50" relative="1" as="geometry">
            <mxPoint x="530" y="360" as="sourcePoint" />
            <mxPoint x="480" y="480" as="targetPoint" />
          </mxGeometry>
        </mxCell>
        <mxCell id="Yy8-1cXJRBkbJvWf1qfa-24" value="" style="endArrow=none;html=1;rounded=0;exitX=0.5;exitY=1;exitDx=0;exitDy=0;entryX=0.5;entryY=1;entryDx=0;entryDy=0;strokeWidth=2;" edge="1" parent="1" source="Yy8-1cXJRBkbJvWf1qfa-7">
          <mxGeometry width="50" height="50" relative="1" as="geometry">
            <mxPoint x="370" y="360" as="sourcePoint" />
            <mxPoint x="261" y="480" as="targetPoint" />
          </mxGeometry>
        </mxCell>
        <mxCell id="Yy8-1cXJRBkbJvWf1qfa-27" value="" style="endArrow=none;html=1;rounded=0;exitX=0.5;exitY=1;exitDx=0;exitDy=0;entryX=0.5;entryY=1;entryDx=0;entryDy=0;strokeWidth=2;" edge="1" parent="1" source="Yy8-1cXJRBkbJvWf1qfa-7">
          <mxGeometry width="50" height="50" relative="1" as="geometry">
            <mxPoint x="371" y="360" as="sourcePoint" />
            <mxPoint x="371" y="480" as="targetPoint" />
          </mxGeometry>
        </mxCell>
        <mxCell id="Yy8-1cXJRBkbJvWf1qfa-7" value="" style="ellipse;whiteSpace=wrap;html=1;aspect=fixed;" vertex="1" parent="1">
          <mxGeometry x="290" y="300" width="60" height="60" as="geometry" />
        </mxCell>
        <mxCell id="Yy8-1cXJRBkbJvWf1qfa-8" value="" style="ellipse;whiteSpace=wrap;html=1;aspect=fixed;" vertex="1" parent="1">
          <mxGeometry x="500" y="300" width="60" height="60" as="geometry" />
        </mxCell>
        <mxCell id="Yy8-1cXJRBkbJvWf1qfa-32" value="" style="endArrow=none;html=1;rounded=0;entryX=0.5;entryY=1;entryDx=0;entryDy=0;strokeWidth=2;" edge="1" parent="1" target="Yy8-1cXJRBkbJvWf1qfa-9">
          <mxGeometry width="50" height="50" relative="1" as="geometry">
            <mxPoint x="320" y="300" as="sourcePoint" />
            <mxPoint x="370" y="250" as="targetPoint" />
          </mxGeometry>
        </mxCell>
        <mxCell id="Yy8-1cXJRBkbJvWf1qfa-33" value="" style="endArrow=none;html=1;rounded=0;entryX=0.5;entryY=0;entryDx=0;entryDy=0;exitX=0.5;exitY=1;exitDx=0;exitDy=0;strokeWidth=2;" edge="1" parent="1" source="Yy8-1cXJRBkbJvWf1qfa-9" target="Yy8-1cXJRBkbJvWf1qfa-8">
          <mxGeometry width="50" height="50" relative="1" as="geometry">
            <mxPoint x="330" y="310" as="sourcePoint" />
            <mxPoint x="435" y="220" as="targetPoint" />
          </mxGeometry>
        </mxCell>
        <mxCell id="Yy8-1cXJRBkbJvWf1qfa-36" value="&lt;span style=&quot;color: rgb(60, 66, 74); font-family: geomanistregular; letter-spacing: 0.2px; background-color: rgb(255, 255, 255);&quot;&gt;&lt;b style=&quot;&quot;&gt;&lt;font style=&quot;font-size: 42px;&quot;&gt;Ä¥&lt;/font&gt;&lt;/b&gt;&lt;/span&gt;" style="text;html=1;align=center;verticalAlign=middle;whiteSpace=wrap;rounded=0;" vertex="1" parent="1">
          <mxGeometry x="640" y="495" width="60" height="30" as="geometry" />
        </mxCell>
        <mxCell id="Yy8-1cXJRBkbJvWf1qfa-37" value="&lt;span style=&quot;color: rgb(60, 66, 74); font-family: geomanistregular; letter-spacing: 0.2px; background-color: rgb(255, 255, 255);&quot;&gt;&lt;b style=&quot;&quot;&gt;&lt;font style=&quot;font-size: 42px;&quot;&gt;h&lt;/font&gt;&lt;/b&gt;&lt;/span&gt;" style="text;html=1;align=center;verticalAlign=middle;whiteSpace=wrap;rounded=0;" vertex="1" parent="1">
          <mxGeometry x="640" y="315" width="60" height="30" as="geometry" />
        </mxCell>
        <mxCell id="Yy8-1cXJRBkbJvWf1qfa-38" value="&lt;span style=&quot;color: rgb(60, 66, 74); font-family: geomanistregular; letter-spacing: 0.2px; background-color: rgb(255, 255, 255);&quot;&gt;&lt;b style=&quot;&quot;&gt;&lt;font style=&quot;font-size: 42px;&quot;&gt;x&lt;/font&gt;&lt;/b&gt;&lt;/span&gt;" style="text;html=1;align=center;verticalAlign=middle;whiteSpace=wrap;rounded=0;" vertex="1" parent="1">
          <mxGeometry x="550" y="675" width="60" height="30" as="geometry" />
        </mxCell>
        <mxCell id="Yy8-1cXJRBkbJvWf1qfa-39" value="&lt;span style=&quot;color: rgb(60, 66, 74); font-family: geomanistregular; letter-spacing: 0.2px; background-color: rgb(255, 255, 255);&quot;&gt;&lt;b style=&quot;&quot;&gt;&lt;font style=&quot;font-size: 42px;&quot;&gt;y&lt;/font&gt;&lt;/b&gt;&lt;/span&gt;" style="text;html=1;align=center;verticalAlign=middle;whiteSpace=wrap;rounded=0;" vertex="1" parent="1">
          <mxGeometry x="490" y="160" width="60" height="30" as="geometry" />
        </mxCell>
        <mxCell id="Yy8-1cXJRBkbJvWf1qfa-40" value="" style="curved=1;endArrow=classic;html=1;rounded=0;exitX=0;exitY=0.5;exitDx=0;exitDy=0;entryX=1;entryY=0.5;entryDx=0;entryDy=0;strokeWidth=2;strokeColor=#66B2FF;" edge="1" parent="1" source="Yy8-1cXJRBkbJvWf1qfa-8" target="Yy8-1cXJRBkbJvWf1qfa-7">
          <mxGeometry width="50" height="50" relative="1" as="geometry">
            <mxPoint x="420" y="355" as="sourcePoint" />
            <mxPoint x="470" y="305" as="targetPoint" />
            <Array as="points">
              <mxPoint x="440" y="350" />
            </Array>
          </mxGeometry>
        </mxCell>
        <mxCell id="Yy8-1cXJRBkbJvWf1qfa-41" value="" style="curved=1;endArrow=classic;html=1;rounded=0;exitX=1;exitY=0.5;exitDx=0;exitDy=0;entryX=0;entryY=0.5;entryDx=0;entryDy=0;strokeWidth=2;strokeColor=#66B2FF;" edge="1" parent="1" source="Yy8-1cXJRBkbJvWf1qfa-7" target="Yy8-1cXJRBkbJvWf1qfa-8">
          <mxGeometry width="50" height="50" relative="1" as="geometry">
            <mxPoint x="500" y="390" as="sourcePoint" />
            <mxPoint x="350" y="390" as="targetPoint" />
            <Array as="points">
              <mxPoint x="430" y="310" />
            </Array>
          </mxGeometry>
        </mxCell>
        <mxCell id="Yy8-1cXJRBkbJvWf1qfa-42" value="" style="curved=1;endArrow=classic;html=1;rounded=0;exitX=0;exitY=0.5;exitDx=0;exitDy=0;entryX=0;entryY=0.5;entryDx=0;entryDy=0;strokeWidth=2;strokeColor=#66B2FF;" edge="1" parent="1" target="Yy8-1cXJRBkbJvWf1qfa-7">
          <mxGeometry width="50" height="50" relative="1" as="geometry">
            <mxPoint x="290" y="330" as="sourcePoint" />
            <mxPoint x="140" y="330" as="targetPoint" />
            <Array as="points">
              <mxPoint x="230" y="300" />
              <mxPoint x="220" y="330" />
              <mxPoint x="230" y="370" />
            </Array>
          </mxGeometry>
        </mxCell>
        <mxCell id="Yy8-1cXJRBkbJvWf1qfa-43" value="" style="curved=1;endArrow=classic;html=1;rounded=0;exitX=0;exitY=0.5;exitDx=0;exitDy=0;entryX=0;entryY=0.5;entryDx=0;entryDy=0;strokeWidth=2;strokeColor=#66B2FF;" edge="1" parent="1">
          <mxGeometry width="50" height="50" relative="1" as="geometry">
            <mxPoint x="560" y="330" as="sourcePoint" />
            <mxPoint x="560" y="330" as="targetPoint" />
            <Array as="points">
              <mxPoint x="620" y="370" />
              <mxPoint x="630" y="330" />
              <mxPoint x="620" y="300" />
            </Array>
          </mxGeometry>
        </mxCell>
        <mxCell id="Yy8-1cXJRBkbJvWf1qfa-12" value="" style="endArrow=none;html=1;rounded=0;exitX=0.5;exitY=0;exitDx=0;exitDy=0;entryX=0.5;entryY=1;entryDx=0;entryDy=0;strokeWidth=2;" edge="1" parent="1" source="Yy8-1cXJRBkbJvWf1qfa-1" target="Yy8-1cXJRBkbJvWf1qfa-3">
          <mxGeometry width="50" height="50" relative="1" as="geometry">
            <mxPoint x="340" y="470" as="sourcePoint" />
            <mxPoint x="390" y="420" as="targetPoint" />
          </mxGeometry>
        </mxCell>
        <mxCell id="Yy8-1cXJRBkbJvWf1qfa-13" value="" style="endArrow=none;html=1;rounded=0;exitX=0.5;exitY=0;exitDx=0;exitDy=0;entryX=0.5;entryY=1;entryDx=0;entryDy=0;strokeWidth=2;" edge="1" parent="1">
          <mxGeometry width="50" height="50" relative="1" as="geometry">
            <mxPoint x="480" y="660" as="sourcePoint" />
            <mxPoint x="370" y="540" as="targetPoint" />
          </mxGeometry>
        </mxCell>
        <mxCell id="Yy8-1cXJRBkbJvWf1qfa-14" value="" style="endArrow=none;html=1;rounded=0;exitX=0.5;exitY=0;exitDx=0;exitDy=0;entryX=0.5;entryY=1;entryDx=0;entryDy=0;strokeWidth=2;" edge="1" parent="1" source="Yy8-1cXJRBkbJvWf1qfa-1">
          <mxGeometry width="50" height="50" relative="1" as="geometry">
            <mxPoint x="480" y="660" as="sourcePoint" />
            <mxPoint x="370" y="540" as="targetPoint" />
          </mxGeometry>
        </mxCell>
        <mxCell id="Yy8-1cXJRBkbJvWf1qfa-15" value="" style="endArrow=none;html=1;rounded=0;exitX=0.5;exitY=0;exitDx=0;exitDy=0;entryX=0.5;entryY=1;entryDx=0;entryDy=0;strokeWidth=2;" edge="1" parent="1" source="Yy8-1cXJRBkbJvWf1qfa-1">
          <mxGeometry width="50" height="50" relative="1" as="geometry">
            <mxPoint x="479.38" y="660" as="sourcePoint" />
            <mxPoint x="479.38" y="540" as="targetPoint" />
          </mxGeometry>
        </mxCell>
        <mxCell id="Yy8-1cXJRBkbJvWf1qfa-16" value="" style="endArrow=none;html=1;rounded=0;exitX=0.5;exitY=0;exitDx=0;exitDy=0;entryX=0.5;entryY=1;entryDx=0;entryDy=0;strokeWidth=2;" edge="1" parent="1">
          <mxGeometry width="50" height="50" relative="1" as="geometry">
            <mxPoint x="480" y="660" as="sourcePoint" />
            <mxPoint x="589.38" y="540" as="targetPoint" />
          </mxGeometry>
        </mxCell>
        <mxCell id="Yy8-1cXJRBkbJvWf1qfa-17" value="" style="endArrow=none;html=1;rounded=0;exitX=0.5;exitY=0;exitDx=0;exitDy=0;entryX=0.5;entryY=1;entryDx=0;entryDy=0;strokeWidth=2;" edge="1" parent="1" source="Yy8-1cXJRBkbJvWf1qfa-1" target="Yy8-1cXJRBkbJvWf1qfa-6">
          <mxGeometry width="50" height="50" relative="1" as="geometry">
            <mxPoint x="390" y="680" as="sourcePoint" />
            <mxPoint x="499.38" y="560" as="targetPoint" />
          </mxGeometry>
        </mxCell>
        <mxCell id="Yy8-1cXJRBkbJvWf1qfa-18" value="" style="endArrow=none;html=1;rounded=0;exitX=0.5;exitY=1;exitDx=0;exitDy=0;strokeWidth=2;" edge="1" parent="1" source="Yy8-1cXJRBkbJvWf1qfa-3">
          <mxGeometry width="50" height="50" relative="1" as="geometry">
            <mxPoint x="380" y="670" as="sourcePoint" />
            <mxPoint x="480" y="660" as="targetPoint" />
          </mxGeometry>
        </mxCell>
        <mxCell id="Yy8-1cXJRBkbJvWf1qfa-19" value="" style="endArrow=none;html=1;rounded=0;exitX=0.5;exitY=0;exitDx=0;exitDy=0;entryX=0.5;entryY=1;entryDx=0;entryDy=0;strokeWidth=2;" edge="1" parent="1">
          <mxGeometry width="50" height="50" relative="1" as="geometry">
            <mxPoint x="479.38" y="660" as="sourcePoint" />
            <mxPoint x="479.38" y="540" as="targetPoint" />
          </mxGeometry>
        </mxCell>
        <mxCell id="Yy8-1cXJRBkbJvWf1qfa-45" value="&lt;font color=&quot;#66b2ff&quot; style=&quot;font-size: 19px;&quot;&gt;&lt;b&gt;Recurrent Connections&lt;/b&gt;&lt;/font&gt;" style="text;html=1;align=center;verticalAlign=middle;whiteSpace=wrap;rounded=0;" vertex="1" parent="1">
          <mxGeometry x="90" y="310" width="120" height="50" as="geometry" />
        </mxCell>
        <mxCell id="Yy8-1cXJRBkbJvWf1qfa-46" value="&lt;font size=&quot;1&quot; color=&quot;#ff9999&quot; style=&quot;&quot;&gt;&lt;b style=&quot;font-size: 19px;&quot;&gt;Artificial Neuron Unit&lt;/b&gt;&lt;/font&gt;" style="text;html=1;align=center;verticalAlign=middle;whiteSpace=wrap;rounded=0;" vertex="1" parent="1">
          <mxGeometry x="140" y="210" width="150" height="60" as="geometry" />
        </mxCell>
      </root>
    </mxGraphModel>
  </diagram>
</mxfile>
